<?xml version="1.0" standalone="no"?><!DOCTYPE svg PUBLIC "-//W3C//DTD SVG 1.1//EN" "http://www.w3.org/Graphics/SVG/1.1/DTD/svg11.dtd"><svg t="1495203406139" class="icon" fill="#aaa" style="" viewBox="0 0 1024 1024" version="1.1" xmlns="http://www.w3.org/2000/svg" p-id="4266" xmlns:xlink="http://www.w3.org/1999/xlink" width="200" height="200"><defs><style type="text/css"></style></defs><path d="M911.468 129.377H106.88c-32.127 0-58.251 26.207-58.251 58.439v555.426c0 32.2 26.155 58.438 58.251 58.438h43.757c2.656 8.21 7.52 16.324 14.808 23.917a14.27 14.27 0 0 0 6.546 3.86c72.966 18.96 91.08 42.542 95.377 54.882 4.769 13.701-3.127 24.704-3.628 25.373-4.695 6.086-3.629 14.786 2.343 19.545 6.055 4.842 14.798 3.84 19.63-2.258 6.61-8.399 15.792-28.592 8.262-51.214-10.364-30.976-47.677-55.344-110.897-72.369-5.25-6.264-6.84-11.42-6.84-15.626v-0.071c0.021-5.607 3.545-11.242 9.872-16.105 0.21-0.136 0.428-0.284 0.596-0.43a47.852 47.852 0 0 1 6.087-3.808 22.699 22.699 0 0 1 1.59-0.803c2.666-1.349 5.751-2.384 8.794-3.483 4.853-1.172 13.617-2.74 27.547-2.74 24.419 0 52.917 4.82 84.647 14.202 5.312 2.323 10.614 4.726 15.968 7.593 1.621 0.867 3.232 1.788 4.863 2.74 6.724 3.785 13.45 7.927 20.226 12.601 0.585 0.418 1.15 0.702 1.735 1.12 106.724 75.183 94.813 113.123 94.897 113.123-3.598 6.83-1.004 15.322 5.804 18.941a13.939 13.939 0 0 0 6.505 1.621c5.03 0 9.862-2.72 12.33-7.479 4.392-8.325 18.992-50.26-69.546-123.153h246.955c-88.559 72.913-74 114.86-69.608 123.153 2.574 4.842 7.613 7.75 12.802 7.75a13.17 13.17 0 0 0 6.253-1.568c6.818-3.607 9.6-11.703 6.013-18.531-0.146-0.366-12.676-38.309 94.592-113.857 7.467-5.27 14.903-9.81 22.319-13.951 1.338-0.753 2.707-1.54 4.047-2.26 5.584-2.97 11.085-5.49 16.607-7.906 31.625-9.319 60.071-14.14 84.44-14.14 13.95 0 22.682 1.6 27.482 2.72 3.075 1.088 6.223 2.154 8.88 3.534 0.522 0.251 1.002 0.501 1.506 0.721 2.342 1.265 4.548 2.604 6.42 4.06l0.25 0.176c6.391 4.864 9.905 10.52 9.936 16.148 0 0.082 0.053 0.147 0.053 0.23-0.053 4.142-1.695 9.267-6.86 15.478-63.25 17.025-100.534 41.392-110.887 72.37-7.571 22.62 1.642 42.814 8.261 51.213a13.856 13.856 0 0 0 19.59 2.258c6.055-4.779 7.058-13.584 2.258-19.65-0.084-0.105-8.293-11.085-3.66-24.922 4.13-12.433 22.088-36.153 95.492-55.25a13.777 13.777 0 0 0 6.557-3.87c7.31-7.612 12.194-15.791 14.818-24.051 31.51-0.692 56.934-26.522 56.934-58.295V187.816c0.095-32.232-26.039-58.44-58.135-58.44zM317.995 664.02c17.225 44.604 6.62 70.007-0.617 80.81 0-0.02-0.02-0.02-0.052-0.02-1.244-0.504-2.478-0.954-3.712-1.424-16.66-6.306-32.734-10.281-47.95-12.362-1.307-0.155-2.625-0.356-3.943-0.524-7.133-0.815-14.056-1.253-20.76-1.295-1.506 0-2.96 0.082-4.466 0.146-5.543 0.136-10.939 0.533-16.084 1.172-1.36 0.168-2.76 0.292-4.1 0.482-1.087 0.166-2.091 0.438-3.157 0.616 4.873-23.184 8.156-57.455-7.049-80.39-16.294-24.704-20.1-100.754-0.282-158.189 8.513-24.754-1.757-69.44-9.016-94.979h124.21c5.25 18.51 14.202 65.551-6.818 124.942l-1.506 4.141c-10.185 28.424-22.861 63.794 5.302 136.874z m539.3-12.82c-15.238 22.965-11.943 57.204-7.09 80.421-1.088-0.22-2.092-0.47-3.201-0.616-0.9-0.136-1.851-0.19-2.802-0.336-5.773-0.784-11.86-1.203-18.166-1.34a49.295 49.295 0 0 0-2.49-0.081c-23.32-0.116-49.727 4.527-77.535 15.582-7.259-10.751-17.863-36.164-0.638-80.81 28.184-73.132 15.456-108.502 5.25-136.947l-1.454-4.07c-21.021-59.41-12.027-106.43-6.788-124.941h124.211c-7.29 25.539-17.559 70.225-9.015 94.98 19.756 57.488 15.99 133.57-0.282 158.157z m55.375 122.433c-1.871-5.387-4.832-10.605-8.963-15.438-0.585-0.648-1.286-1.255-1.861-1.883-0.23-0.25-0.481-0.438-0.68-0.667-2.06-2.134-4.381-4.143-6.923-6.077a57.083 57.083 0 0 0-2.447-1.819 72.58 72.58 0 0 0-6.39-3.973c-0.952-0.556-1.758-1.204-2.772-1.737-0.303-0.168-0.69-0.251-1.004-0.417-0.021-0.032-0.052-0.032-0.082-0.052-5.303-17.927-13.178-56.58-0.974-74.882 23.217-35.138 24.807-120.548 3.4-182.827-5.774-16.775 3.21-58.021 11.754-85.839h5.47c7.707 0 13.95-6.265 13.95-13.993 0-7.717-6.243-13.992-13.95-13.992H720.316c-7.707 0-13.962 6.275-13.962 13.992 0 5.438 3.148 10 7.646 12.32-6.275 24.953-13.01 74.21 8.847 135.976l1.506 4.235c9.099 25.287 19.4 53.952-5.02 117.297-19.817 51.327-9.433 84.783 1.12 102.708-9.297 4.937-18.698 10.595-28.142 17.027l-0.022 0.042H371.28c-0.89-0.627-1.777-1.047-2.709-1.653a283.105 283.105 0 0 0-22.861-13.898c-0.91-0.492-1.84-1.12-2.793-1.621 10.563-17.946 20.916-51.381 1.12-102.625-24.42-63.229-14.13-91.873-5.073-117.192l1.527-4.28c21.857-61.784 15.132-111 8.847-135.953 4.518-2.332 7.676-6.891 7.676-12.33 0-7.727-6.253-13.992-13.95-13.992h-180.86c-7.708 0-13.951 6.265-13.951 13.993s6.243 14.004 13.95 14.004h5.459c8.523 27.807 17.527 69.065 11.766 85.839-21.085 61.116-19.463 148.23 3.398 182.817 12.09 18.229 4.267 56.964-1.004 74.88-0.335 0.197-0.774 0.302-1.108 0.48-1.13 0.576-2.018 1.287-3.054 1.872-2.091 1.214-4.1 2.405-5.972 3.724-0.91 0.648-1.809 1.317-2.707 1.986-2.427 1.883-4.665 3.85-6.673 5.908-0.273 0.283-0.586 0.556-0.858 0.847-0.585 0.586-1.286 1.172-1.82 1.779-1.694 1.996-3.032 4.1-4.37 6.17a0.73 0.73 0 0 1-0.147 0.197c-1.841 2.96-3.41 6.014-4.498 9.13H106.86c-16.754 0-30.35-13.647-30.35-30.444V187.816c0-16.775 13.623-30.434 30.35-30.434h804.589c16.711 0 30.306 13.659 30.306 30.434v555.426h0.021c0 16.377-12.948 29.742-29.105 30.392zM479.625 332.848c0-7.74-6.254-14.014-13.951-14.014-47.312 0-87.408-29.346-106.703-43.453-4.434-3.252-7.928-5.762-10.322-7.195a13.895 13.895 0 0 0-19.118 4.905c-3.943 6.63-1.767 15.227 4.853 19.18 1.871 1.15 4.632 3.159 8.146 5.773 21.659 15.844 66.732 48.828 123.143 48.828 7.697-0.032 13.952-6.306 13.952-14.024z m199.988-64.662c-2.374 1.433-5.888 3.943-10.353 7.195-19.263 14.087-59.37 43.432-106.682 43.432-7.697 0-13.952 6.275-13.952 14.004s6.254 14.004 13.952 14.004c56.41 0 101.484-32.964 123.143-48.819 3.524-2.572 6.286-4.644 8.178-5.762 6.62-3.943 8.795-12.54 4.863-19.18-3.974-6.663-12.539-8.859-19.149-4.874z m-70.81 380.494l-93.924-42.281a13.934 13.934 0 0 0-12.026 0.281l-83.07 42.272c-6.881 3.504-9.62 11.944-6.128 18.845 3.452 6.891 11.86 9.58 18.751 6.17l77.107-39.26 87.815 39.532a13.761 13.761 0 0 0 5.722 1.235c5.302 0 10.416-3.044 12.728-8.262 3.21-7.05 0.063-15.332-6.975-18.532z" fill="" p-id="4267"></path></svg>